#N canvas 2552 353 1920 997 12;
#X text 177 277 creation arguments are OSC address;
#X text 179 238 set message to change OSC address;
#X text 164 48 1 Set IP Address : network address;
#X text 164 68 2 Set Ports (sending and listening);
#X text 164 87 3 Set OSC Addresses (routing osc data;
#X text 155 26 Key Settings;
#X floatatom 43 194 5 0 0 0 - - -;
#N canvas 2681 412 1000 1000 oscReceive 1;
#X obj 55 184 netreceive -u -b;
#X msg 78 143 listen 0;
#X text 152 143 stop listening;
#X text 64 58 packets from network;
#X text 173 177 UDP packets \, binary output, f 13;
#X obj 45 314 print;
#X obj 45 272 oscparse;
#X text 150 114 listen on port 8000;
#X obj 177 269 oscparse;
#X obj 177 293 list trim;
#X floatatom 140 380 5 0 0 0 - - -;
#X text 241 267 Parse the OSC message;
#X obj 177 319 route unity;
#X obj 139 357 route trigger;
#X obj 140 407 s osctrig;
#X msg 66 115 listen 8000;
#X obj 66 84 loadbang;
#X floatatom 244 382 5 0 0 0 - - -;
#X obj 243 359 route tempo;
#X obj 244 409 s osctempo;
#X floatatom 339 382 5 0 0 0 - - -;
#X obj 338 359 route playseq;
#X obj 339 409 s oscplayseq;
#X floatatom 437 382 5 0 0 0 - - -;
#X obj 436 359 route colwall;
#X obj 437 409 s oscwall;
#X floatatom 547 383 5 0 1 0 - - -;
#X obj 546 360 route volume;
#X obj 547 410 s glovolume;
#X floatatom 651 382 5 0 1 0 - - -;
#X obj 650 359 route ballspeed;
#X obj 651 409 s ballspeed;
#X floatatom 772 381 5 0 0 0 - - -;
#X obj 771 358 route rollseq;
#X obj 772 408 s oscrollseq;
#X floatatom 50 587 5 0 0 0 - - -;
#X floatatom 163 587 5 0 0 0 - - -;
#X obj 49 564 route wrongball;
#X obj 162 564 route rightball;
#X obj 50 614 s oscwrong;
#X obj 163 614 s oscright;
#X obj 693 179 vsl 15 128 0 20 0 0 empty empty empty 0 -9 0 10 -262144
-1 -1 0 1;
#X obj 583 189 vsl 15 128 0 1 0 0 empty empty empty 0 -9 0 10 -262144
-1 -1 0 1;
#X text 733 207 use this to change the ball speed;
#X text 616 187 use this to change the global volume;
#X obj 478 223 tgl 15 0 empty empty empty 17 7 0 10 -262144 -1 -1 0
1;
#X obj 67 456 tgl 15 0 empty empty empty 17 7 0 10 -262144 -1 -1 0
1;
#X obj 195 457 tgl 15 0 empty empty empty 17 7 0 10 -262144 -1 -1 0
1;
#X text 43 434 toggle for wrong ball;
#X text 228 464 toggle for right ball;
#X text 481 248 toggle for wall collision;
#X connect 0 0 6 0;
#X connect 0 0 8 0;
#X connect 1 0 0 0;
#X connect 6 0 5 0;
#X connect 8 0 9 0;
#X connect 9 0 12 0;
#X connect 10 0 14 0;
#X connect 12 0 13 0;
#X connect 12 0 18 0;
#X connect 12 0 21 0;
#X connect 12 0 24 0;
#X connect 12 0 27 0;
#X connect 12 0 30 0;
#X connect 12 0 33 0;
#X connect 12 0 37 0;
#X connect 12 0 38 0;
#X connect 13 0 10 0;
#X connect 15 0 0 0;
#X connect 16 0 15 0;
#X connect 17 0 19 0;
#X connect 18 0 17 0;
#X connect 20 0 22 0;
#X connect 21 0 20 0;
#X connect 23 0 25 0;
#X connect 24 0 23 0;
#X connect 26 0 28 0;
#X connect 27 0 26 0;
#X connect 29 0 31 0;
#X connect 30 0 29 0;
#X connect 32 0 34 0;
#X connect 33 0 32 0;
#X connect 35 0 39 0;
#X connect 36 0 40 0;
#X connect 37 0 35 0;
#X connect 38 0 36 0;
#X connect 41 0 29 0;
#X connect 42 0 26 0;
#X connect 45 0 23 0;
#X connect 46 0 35 0;
#X connect 47 0 36 0;
#X restore 47 142 pd oscReceive;
#X obj 48 36 tgl 15 0 empty empty empty 17 7 0 10 -262144 -1 -1 0 1
;
#X msg 47 61 \; pd dsp \$1;
#X obj 44 278 oscformat PD message;
#X msg 76 239 set PD message;
#N canvas 727 97 450 300 oscSend 0;
#X msg 158 207 disconnect;
#X obj 61 253 netsend -u -b;
#X obj 59 55 list prepend send;
#X obj 59 80 list trim;
#X msg 150 175 connect 127.0.0.1 8001;
#X obj 59 29 r oscOut;
#X text 301 163 send to port 8001;
#X msg 147 148 connect localhost 8001;
#X obj 147 108 loadbang;
#X connect 0 0 1 0;
#X connect 2 0 3 0;
#X connect 3 0 1 0;
#X connect 4 0 1 0;
#X connect 5 0 2 0;
#X connect 7 0 1 0;
#X connect 8 0 7 0;
#X restore 47 118 pd oscSend;
#X obj 44 313 s oscOut;
#X floatatom 294 826 5 0 1 0 - - -;
#X obj 306 770 r glovolume;
#X obj 231 865 *~;
#X obj 222 910 dac~;
#X obj 42 740 noise~;
#X obj 99 788 *~;
#X obj 162 832 *~;
#X obj 189 735 r ballspeed;
#X floatatom 189 758 5 0 1 0 - - -;
#X obj 119 578 metro 4000;
#X obj 121 615 f;
#X obj 164 616 + 1;
#X floatatom 88 715 5 0 0 0 - - -;
#X floatatom 122 715 5 0 0 0 - - -;
#X obj 119 648 mod 4;
#X obj 115 689 select 0 1 2 3;
#X floatatom 158 715 5 0 0 0 - - -;
#X floatatom 194 714 5 0 0 0 - - -;
#X obj 148 738 + 0;
#X obj 289 479 loadbang;
#X floatatom 168 671 5 0 0 0 - - -;
#X msg 234 502 0.16;
#X msg 271 502 0.18;
#X msg 309 502 0.14;
#X msg 347 503 0.12;
#X floatatom 140 462 5 0 20 0 - - -;
#X floatatom 140 506 5 0 100 0 - - -;
#X floatatom 141 554 5 0 200 0 - - -;
#X obj 60 538 tgl 15 0 empty empty empty 17 7 0 10 -262144 -1 -1 1
1;
#X floatatom 189 808 5 0 1 0 - - -;
#X obj 62 684 hsl 30 15 0 1 0 0 empty empty empty -2 -8 0 10 -262144
-1 -1 2900 1;
#X msg 61 650 1;
#X obj 140 390 r ballspeed;
#X floatatom 140 413 5 0 20 0 - - -;
#X obj 189 784 / 20;
#X obj 15 485 r oscrollseq;
#X obj 140 482 * -5;
#X obj 140 436 - 20;
#X obj 141 529 + 200;
#X obj 1186 252 bng 15 250 50 0 empty empty empty 17 7 0 10 -262144
-1 -1;
#X obj 1180 214 r oscwall;
#X text 1101 187 Trigger noise burst when running into a wall;
#X obj 1130 442 noise~;
#X obj 1130 644 *~;
#X obj 1268 469 line;
#X floatatom 1213 497 5 0 0 0 - - -;
#X obj 1292 285 bng 15 250 50 0 empty empty empty 17 7 0 10 -262144
-1 -1;
#X obj 1353 367 bng 15 250 50 0 empty empty empty 17 7 0 10 -262144
-1 -1;
#X obj 1129 739 dac~;
#X obj 1027 529 *~ 0.1;
#X obj 1131 475 *~ 1;
#X obj 1130 694 *~ 1;
#X obj 1119 587 clip~ -0.9 0.9;
#X msg 1187 288 1 50;
#X obj 1278 255 delay 50;
#X obj 1024 491 hip~ 6000;
#X obj 1126 507 bp~ 100 5;
#X obj 1116 559 *~ 25;
#X msg 1269 328 0.5 250;
#X obj 1348 332 delay 250;
#X msg 1359 414 0 200;
#X obj 984 631 r glovolume;
#X floatatom 980 671 5 0 0 0 - - -;
#X obj 686 803 *~;
#X obj 749 728 vline~;
#X obj 760 619 bng 15 250 50 0 empty empty empty 17 7 0 10 -262144
-1 -1;
#X obj 613 389 *~;
#X obj 679 307 vline~;
#X obj 679 202 bng 15 250 50 0 empty empty empty 17 7 0 10 -262144
-1 -1;
#X obj 754 581 r oscright;
#X obj 673 164 r oscwrong;
#X text 639 549 Trigger noise burst when collecting right ball;
#X text 536 129 Trigger noise burst when collecting wrong ball;
#X obj 686 755 osc~;
#X obj 597 339 phasor~;
#X obj 595 304 f;
#X obj 669 720 f;
#X msg 680 242 1 25 \, 0 500 75;
#X msg 761 659 1 25 \, 0 500 75;
#X msg 598 219 60;
#X floatatom 598 252 5 0 0 0 - - -;
#X obj 595 184 loadbang;
#X floatatom 667 664 5 0 0 0 - - -;
#X obj 664 596 loadbang;
#X msg 667 631 300;
#X obj 543 481 dac~;
#X obj 546 429 *~;
#X obj 685 928 dac~;
#X obj 688 876 *~;
#X floatatom 673 441 5 0 1 0 - - -;
#X obj 677 398 r glovolume;
#X floatatom 749 845 5 0 1 0 - - -;
#X obj 753 802 r glovolume;
#X obj 1673 864 *~;
#X obj 1595 594 mtof;
#X obj 1594 553 + 0;
#X obj 1561 275 tgl 15 0 empty empty empty 17 7 0 10 -262144 -1 -1
1 1;
#X obj 1541 342 f;
#X obj 1584 344 + 1;
#X obj 1853 661 vline~;
#X floatatom 1471 578 5 0 0 0 - - -;
#X obj 1471 525 loadbang;
#X obj 1629 733 phasor~;
#X floatatom 1627 674 5 0 0 0 - - -;
#X obj 1704 732 phasor~;
#X obj 1703 701 * -1;
#X obj 1672 791 +~;
#X obj 1670 824 -~ 1;
#X msg 1705 670 0;
#X msg 1753 670 0.5;
#X obj 1726 640 bng 15 250 50 0 empty empty empty 17 7 0 10 -262144
-1 -1;
#X obj 1649 600 loadbang;
#X obj 1497 198 r oscplayseq;
#X msg 1777 594 0.5 25 \, 0 100 75;
#X msg 1471 552 48;
#X floatatom 1481 787 5 0 1 0 - - -;
#X obj 1481 761 r glovolume;
#X obj 1615 903 *~;
#X obj 1606 948 dac~;
#X obj 1635 186 r ballspeed;
#X floatatom 1635 215 5 0 0 0 - - -;
#X obj 1562 409 select 0 1 2 3 4 5 6 7 8 9 10;
#X obj 1561 377 mod 12;
#X obj 1560 308 metro 1000;
#X floatatom 1647 318 5 0 0 0 - - -;
#X obj 1647 249 - 20;
#X msg 1488 464 0;
#X msg 1527 464 2;
#X msg 1568 464 4;
#X msg 1610 464 6;
#X msg 1691 465 2;
#X msg 1732 465 4;
#X msg 1774 465 6;
#X text 1467 152 Sequence playback: tempo is dependent on ball speed
on unity;
#X floatatom 1485 836 5 0 0 0 - - -;
#X obj 1484 811 / 2;
#X obj 1647 284 * -20;
#X msg 1652 465 8;
#X msg 1818 465 8;
#X msg 1857 465 4;
#X msg 1898 465 6;
#X msg 1940 465 8;
#X text 1356 238 Added delays to create a layering effect;
#X text 835 254 click this bang to start the sound in puredata. This
is where the signal will go to when the ball hits the wall.;
#X text 948 422 Used a high pass filter that reduces low frequencies
and keeps the higher ones.;
#X text 1168 622 clip used to limit between these two limits;
#X text 97 365 Ball rolling sound (kinda noisy);
#X text 228 399 comes in a range of 0-20;
#X text 5 454 incoming start signal;
#X text 198 534 changes to range of 200-300;
#X text 212 565 will speed up or slow down the sound based on the speed
of the ball;
#X text 201 639 this selector modulates the noise volume. Makes it
more rhythmic like a ball rolling.;
#X text 295 718 This speed controls volume as a slower roll isn't as
loud;
#X text 395 788 Global volume control;
#X text 959 597 Global volume control;
#X text 24 668 use the slider;
#X text 8 611 so you can toggle the roll yourself;
#X text 1698 234 ball speed is converted to a usable metronome value
;
#X text 1834 508 this a simple 12-note track \, trying to simulate
pitch circularity but it was hard to with my current knowledge of puredata
;
#X text 1631 549 additional phasor sound is used to make the phasor
sound less flat;
#X text 1424 734 global volume control;
#X text 747 778 Global volume control;
#X text 666 376 Global volume control;
#X text 488 181 loads a specific frequency;
#X text 713 196 comment;
#X text 561 617 loads a specific frequency;
#X text 724 219 sound ramps down for 500ms;
#X text 772 635 sound ramps down for 500ms;
#X text 1166 527 band-pass filter used to keep everything within a
certain frequency range and reject everything else.;
#X connect 6 0 10 0;
#X connect 8 0 9 0;
#X connect 10 0 13 0;
#X connect 11 0 10 0;
#X connect 14 0 16 1;
#X connect 15 0 14 0;
#X connect 16 0 17 0;
#X connect 16 0 17 1;
#X connect 18 0 19 0;
#X connect 19 0 20 0;
#X connect 20 0 16 0;
#X connect 21 0 22 0;
#X connect 22 0 48 0;
#X connect 23 0 24 0;
#X connect 24 0 25 0;
#X connect 24 0 28 0;
#X connect 25 0 24 1;
#X connect 26 0 32 0;
#X connect 27 0 32 0;
#X connect 28 0 29 0;
#X connect 28 0 34 0;
#X connect 29 0 26 0;
#X connect 29 1 27 0;
#X connect 29 2 30 0;
#X connect 29 3 31 0;
#X connect 30 0 32 0;
#X connect 31 0 32 0;
#X connect 32 0 19 1;
#X connect 33 0 38 0;
#X connect 33 0 37 0;
#X connect 33 0 36 0;
#X connect 33 0 35 0;
#X connect 35 0 26 0;
#X connect 36 0 27 0;
#X connect 37 0 30 0;
#X connect 38 0 31 0;
#X connect 39 0 50 0;
#X connect 40 0 52 0;
#X connect 41 0 23 1;
#X connect 42 0 23 0;
#X connect 42 0 45 0;
#X connect 43 0 20 1;
#X connect 44 0 19 1;
#X connect 45 0 44 0;
#X connect 46 0 47 0;
#X connect 47 0 51 0;
#X connect 48 0 43 0;
#X connect 49 0 42 0;
#X connect 50 0 40 0;
#X connect 51 0 39 0;
#X connect 52 0 41 0;
#X connect 53 0 67 0;
#X connect 53 0 68 0;
#X connect 54 0 53 0;
#X connect 56 0 64 0;
#X connect 56 0 69 0;
#X connect 57 0 65 0;
#X connect 58 0 59 0;
#X connect 59 0 57 1;
#X connect 60 0 72 0;
#X connect 60 0 73 0;
#X connect 61 0 74 0;
#X connect 63 0 66 0;
#X connect 64 0 70 0;
#X connect 65 0 62 0;
#X connect 65 0 62 1;
#X connect 66 0 57 0;
#X connect 67 0 58 0;
#X connect 68 0 60 0;
#X connect 69 0 63 0;
#X connect 70 0 71 0;
#X connect 71 0 66 0;
#X connect 72 0 58 0;
#X connect 73 0 61 0;
#X connect 74 0 58 0;
#X connect 75 0 76 0;
#X connect 76 0 65 0;
#X connect 77 0 102 0;
#X connect 78 0 77 1;
#X connect 79 0 92 0;
#X connect 79 0 90 0;
#X connect 80 0 100 0;
#X connect 81 0 80 1;
#X connect 82 0 91 0;
#X connect 82 0 89 0;
#X connect 83 0 79 0;
#X connect 84 0 82 0;
#X connect 87 0 77 0;
#X connect 88 0 80 0;
#X connect 89 0 88 0;
#X connect 90 0 87 0;
#X connect 91 0 81 0;
#X connect 92 0 78 0;
#X connect 93 0 94 0;
#X connect 94 0 89 1;
#X connect 95 0 93 0;
#X connect 96 0 90 1;
#X connect 97 0 98 0;
#X connect 98 0 96 0;
#X connect 100 0 99 0;
#X connect 100 0 99 1;
#X connect 102 0 101 0;
#X connect 102 0 101 1;
#X connect 103 0 100 1;
#X connect 104 0 103 0;
#X connect 105 0 102 1;
#X connect 106 0 105 0;
#X connect 107 0 131 0;
#X connect 108 0 117 0;
#X connect 109 0 108 0;
#X connect 110 0 137 0;
#X connect 111 0 112 0;
#X connect 111 0 136 0;
#X connect 112 0 111 1;
#X connect 113 0 107 1;
#X connect 114 0 109 1;
#X connect 115 0 128 0;
#X connect 116 0 120 0;
#X connect 117 0 116 0;
#X connect 117 0 119 0;
#X connect 118 0 120 1;
#X connect 119 0 118 0;
#X connect 120 0 121 0;
#X connect 121 0 107 0;
#X connect 122 0 116 1;
#X connect 123 0 118 1;
#X connect 124 0 122 0;
#X connect 124 0 123 0;
#X connect 125 0 124 0;
#X connect 126 0 110 0;
#X connect 127 0 113 0;
#X connect 128 0 114 0;
#X connect 129 0 149 0;
#X connect 130 0 129 0;
#X connect 131 0 132 0;
#X connect 131 0 132 1;
#X connect 133 0 134 0;
#X connect 134 0 139 0;
#X connect 135 0 140 0;
#X connect 135 1 141 0;
#X connect 135 2 142 0;
#X connect 135 3 143 0;
#X connect 135 4 151 0;
#X connect 135 5 144 0;
#X connect 135 6 145 0;
#X connect 135 7 146 0;
#X connect 135 8 152 0;
#X connect 135 9 153 0;
#X connect 135 10 154 0;
#X connect 135 11 155 0;
#X connect 136 0 135 0;
#X connect 137 0 111 0;
#X connect 137 0 127 0;
#X connect 138 0 137 1;
#X connect 139 0 150 0;
#X connect 140 0 109 0;
#X connect 141 0 109 0;
#X connect 142 0 109 0;
#X connect 143 0 109 0;
#X connect 144 0 109 0;
#X connect 145 0 109 0;
#X connect 146 0 109 0;
#X connect 148 0 131 0;
#X connect 149 0 148 0;
#X connect 150 0 138 0;
#X connect 151 0 109 0;
#X connect 152 0 109 0;
#X connect 153 0 109 0;
#X connect 154 0 109 0;
#X connect 155 0 109 0;
