#N canvas 645 3 1221 977 12;
#X floatatom 599 130 5 0 0 0 - - -;
#X obj 523 170 metro 4000;
#X obj 535 741 *~;
#X obj 394 239 f;
#X obj 456 238 + 1;
#X floatatom 290 372 5 0 0 0 - - -;
#X floatatom 294 466 5 0 0 0 - - -;
#X floatatom 369 467 5 0 0 0 - - -;
#X obj 377 354 mod 4;
#X obj 372 411 select 0 1 2 3;
#X floatatom 439 466 5 0 0 0 - - -;
#X floatatom 516 467 5 0 0 0 - - -;
#X obj 419 545 + 0;
#X obj 604 102 hsl 128 15 0 500 0 0 empty empty empty -2 -8 0 10 -262144
-1 -1 3810 1;
#X obj 164 363 loadbang;
#X obj 831 875 dac~;
#X obj 840 807 *~;
#X obj 1018 612 vsl 15 128 0 1 0 0 empty empty empty 0 -9 0 10 -262144
-1 -1 2540 1;
#X floatatom 421 384 5 0 0 0 - - -;
#X obj 574 34 loadbang;
#X msg 569 71 150;
#X msg 1071 578 0.2;
#X obj 1075 544 loadbang;
#X floatatom 922 772 5 0 0 0 - - -;
#X obj 1063 23 tgl 15 0 empty empty empty 17 7 0 10 -262144 -1 -1 0
1;
#X msg 1063 51 \; pd dsp \$1;
#X obj 1022 102 tgl 15 0 empty empty empty 17 7 0 10 -262144 -1 -1
0 1;
#X text 933 21 DPS on/off -->;
#X text 1042 682 <---- Volume Slider (defualt 0.2);
#X text 1043 101 <--- turn on/off sound generation;
#X text 1098 142 The higher beeps --->;
#X obj 791 146 tgl 15 0 empty empty empty 17 7 0 10 -262144 -1 -1 0
1;
#X text 810 144 <--- The lower background rumbling;
#X text 643 127 <--- also try 300;
#X obj 443 693 noise~;
#X msg 80 419 0.16;
#X msg 129 420 0.18;
#X msg 174 418 0.14;
#X msg 221 417 0.12;
#X connect 0 0 1 1;
#X connect 1 0 3 0;
#X connect 2 0 16 0;
#X connect 3 0 4 0;
#X connect 3 0 5 0;
#X connect 3 0 8 0;
#X connect 4 0 3 1;
#X connect 6 0 12 0;
#X connect 7 0 12 0;
#X connect 8 0 9 0;
#X connect 8 0 18 0;
#X connect 9 0 6 0;
#X connect 9 1 7 0;
#X connect 9 2 10 0;
#X connect 9 3 11 0;
#X connect 10 0 12 0;
#X connect 11 0 12 0;
#X connect 12 0 2 1;
#X connect 13 0 0 0;
#X connect 14 0 38 0;
#X connect 14 0 37 0;
#X connect 14 0 36 0;
#X connect 14 0 35 0;
#X connect 16 0 15 1;
#X connect 16 0 15 0;
#X connect 17 0 23 0;
#X connect 19 0 20 0;
#X connect 20 0 13 0;
#X connect 21 0 17 0;
#X connect 22 0 21 0;
#X connect 23 0 16 1;
#X connect 24 0 25 0;
#X connect 26 0 31 0;
#X connect 31 0 1 0;
#X connect 34 0 2 0;
#X connect 35 0 6 0;
#X connect 36 0 7 0;
#X connect 37 0 10 0;
#X connect 38 0 11 0;
