#N canvas 6467 1205 3840 1996 10;
#X text 177 277 creation arguments are OSC address;
#X text 179 238 set message to change OSC address;
#X text 164 48 1 Set IP Address : network address;
#X text 164 68 2 Set Ports (sending and listening);
#X text 164 87 3 Set OSC Addresses (routing osc data;
#X text 155 26 Key Settings;
#X floatatom 43 194 5 0 0 0 - - -;
#X obj 455 322 select 0 1 2 3 4 5 6 7 8;
#X floatatom 495 579 5 0 0 0 - - -;
#X obj 495 733 *~;
#X obj 494 548 mtof;
#X obj 492 487 + 0;
#X obj 610 639 vline~;
#X floatatom 799 423 5 0 0 0 - - -;
#X obj 799 370 loadbang;
#X msg 450 393 0;
#X floatatom 455 258 5 0 0 0 - - -;
#N canvas 1465 621 910 530 oscReceive 0;
#X obj 55 184 netreceive -u -b;
#X msg 78 143 listen 0;
#X text 152 143 stop listening;
#X text 64 58 packets from network;
#X text 173 177 UDP packets \, binary output, f 13;
#X obj 45 314 print;
#X obj 45 272 oscparse;
#X text 150 114 listen on port 8000;
#X obj 177 269 oscparse;
#X obj 177 293 list trim;
#X floatatom 140 380 5 0 0 0 - - -;
#X text 241 267 Parse the OSC message;
#X obj 177 319 route unity;
#X obj 139 357 route trigger;
#X obj 140 407 s osctrig;
#X msg 66 115 listen 8000;
#X obj 66 84 loadbang;
#X floatatom 244 382 5 0 0 0 - - -;
#X obj 243 359 route tempo;
#X obj 244 409 s osctempo;
#X floatatom 339 382 5 0 0 0 - - -;
#X obj 338 359 route playseq;
#X obj 339 409 s oscplayseq;
#X floatatom 437 382 5 0 0 0 - - -;
#X obj 436 359 route colwall;
#X obj 437 409 s oscwall;
#X floatatom 547 383 5 0 1 0 - - -;
#X obj 546 360 route volume;
#X obj 547 410 s glovolume;
#X floatatom 651 382 5 0 1 0 - - -;
#X obj 650 359 route ballspeed;
#X obj 651 409 s ballspeed;
#X floatatom 772 381 5 0 0 0 - - -;
#X obj 771 358 route rollseq;
#X obj 772 408 s oscrollseq;
#X connect 0 0 6 0;
#X connect 0 0 8 0;
#X connect 1 0 0 0;
#X connect 6 0 5 0;
#X connect 8 0 9 0;
#X connect 9 0 12 0;
#X connect 10 0 14 0;
#X connect 12 0 13 0;
#X connect 12 0 18 0;
#X connect 12 0 21 0;
#X connect 12 0 24 0;
#X connect 12 0 27 0;
#X connect 12 0 30 0;
#X connect 12 0 33 0;
#X connect 13 0 10 0;
#X connect 15 0 0 0;
#X connect 16 0 15 0;
#X connect 17 0 19 0;
#X connect 18 0 17 0;
#X connect 20 0 22 0;
#X connect 21 0 20 0;
#X connect 23 0 25 0;
#X connect 24 0 23 0;
#X connect 26 0 28 0;
#X connect 27 0 26 0;
#X connect 29 0 31 0;
#X connect 30 0 29 0;
#X connect 32 0 34 0;
#X connect 33 0 32 0;
#X restore 47 142 pd oscReceive;
#X obj 48 36 tgl 15 0 empty empty empty 17 7 0 10 -262144 -1 -1 0 1
;
#X msg 47 61 \; pd dsp \$1;
#X msg 489 393 2;
#X msg 530 393 4;
#X msg 572 393 5;
#X msg 609 394 7;
#X msg 650 394 9;
#X msg 692 394 11;
#X msg 726 394 12;
#X obj 455 225 r osctrig;
#X obj 44 278 oscformat PD message;
#X msg 76 239 set PD message;
#N canvas 727 97 450 300 oscSend 0;
#X msg 158 207 disconnect;
#X obj 61 253 netsend -u -b;
#X obj 59 55 list prepend send;
#X obj 59 80 list trim;
#X msg 150 175 connect 127.0.0.1 8001;
#X obj 59 29 r oscOut;
#X text 301 163 send to port 8001;
#X msg 147 148 connect localhost 8001;
#X obj 147 108 loadbang;
#X connect 0 0 1 0;
#X connect 2 0 3 0;
#X connect 3 0 1 0;
#X connect 4 0 1 0;
#X connect 5 0 2 0;
#X connect 7 0 1 0;
#X connect 8 0 7 0;
#X restore 47 118 pd oscSend;
#X obj 44 313 s oscOut;
#X obj 1398 889 *~;
#X obj 1396 634 mtof;
#X obj 1395 593 + 0;
#X obj 1378 345 metro 4000;
#X obj 1379 312 tgl 15 0 empty empty empty 17 7 0 10 -262144 -1 -1
0 1;
#X floatatom 1436 316 5 0 0 0 - - -;
#X obj 1359 379 f;
#X obj 1402 381 + 1;
#X obj 1380 446 select 0 1 2 3;
#X obj 1567 762 vline~;
#X floatatom 1542 531 5 0 0 0 - - -;
#X obj 1542 478 loadbang;
#X obj 1379 414 mod 4;
#X msg 1353 499 0;
#X obj 1354 758 phasor~;
#X floatatom 1352 699 5 0 0 0 - - -;
#X obj 1429 757 phasor~;
#X obj 1428 726 * -1;
#X obj 1397 816 +~;
#X obj 1395 849 -~ 1;
#X msg 1430 695 0;
#X msg 1478 695 0.5;
#X obj 1451 665 bng 15 250 50 0 empty empty empty 17 7 0 10 -262144
-1 -1;
#X obj 1450 640 loadbang;
#X obj 1496 265 r osctempo;
#X obj 1421 239 loadbang;
#X msg 1437 283 500;
#X obj 1327 240 r oscplayseq;
#X obj 450 653 osc~;
#X msg 1392 499 -5;
#X msg 1433 499 -3;
#X msg 1475 499 -1;
#X msg 1567 710 0.5 25 \, 0 100 75;
#X msg 1542 505 48;
#X obj 502 658 osc~;
#X msg 799 397 60;
#X obj 504 631 * 1.5;
#X msg 610 587 0.85 100 \, 0 500 500;
#X text 451 198 Tirgger when picking up rotating cube...;
#X text 1313 188 Sequence playback: tempo increases as more cubes are
collected.;
#X floatatom 597 758 5 0 1 0 - - -;
#X obj 609 702 r glovolume;
#X obj 534 797 *~;
#X obj 525 842 dac~;
#X floatatom 1237 886 5 0 1 0 - - -;
#X obj 1241 843 r glovolume;
#X obj 1340 928 *~;
#X obj 1331 973 dac~;
#X floatatom 294 826 5 0 1 0 - - -;
#X obj 306 770 r glovolume;
#X obj 231 865 *~;
#X obj 222 910 dac~;
#X obj 42 740 noise~;
#X obj 99 788 *~;
#X obj 162 832 *~;
#X obj 189 735 r ballspeed;
#X floatatom 189 758 5 0 1 0 - - -;
#X obj 119 578 metro 4000;
#X obj 121 615 f;
#X obj 164 616 + 1;
#X floatatom 88 715 5 0 0 0 - - -;
#X floatatom 122 715 5 0 0 0 - - -;
#X obj 119 648 mod 4;
#X obj 115 689 select 0 1 2 3;
#X floatatom 158 715 5 0 0 0 - - -;
#X floatatom 194 714 5 0 0 0 - - -;
#X obj 148 738 + 0;
#X obj 289 479 loadbang;
#X floatatom 168 671 5 0 0 0 - - -;
#X msg 234 502 0.16;
#X msg 271 502 0.18;
#X msg 309 502 0.14;
#X msg 347 503 0.12;
#X floatatom 140 462 5 0 20 0 - - -;
#X floatatom 140 506 5 0 100 0 - - -;
#X floatatom 141 554 5 0 200 0 - - -;
#X obj 60 538 tgl 15 0 empty empty empty 17 7 0 10 -262144 -1 -1 0
1;
#X floatatom 189 808 5 0 1 0 - - -;
#X obj 62 684 hsl 30 15 0 1 0 0 empty empty empty -2 -8 0 10 -262144
-1 -1 0 1;
#X msg 61 650 1;
#X obj 140 390 r ballspeed;
#X floatatom 140 413 5 0 20 0 - - -;
#X obj 189 784 / 20;
#X obj 15 485 r oscrollseq;
#X obj 140 482 * -5;
#X obj 140 436 - 20;
#X obj 141 529 + 200;
#X obj 1031 254 bng 15 250 50 0 empty empty empty 17 7 0 10 -262144
-1 -1;
#X obj 1025 216 r oscwall;
#X text 946 189 Trigger noise burst when running into a wall;
#X obj 975 444 noise~;
#X obj 975 646 *~;
#X obj 1113 471 line;
#X floatatom 1058 499 5 0 0 0 - - -;
#X obj 1137 287 bng 15 250 50 0 empty empty empty 17 7 0 10 -262144
-1 -1;
#X obj 1198 369 bng 15 250 50 0 empty empty empty 17 7 0 10 -262144
-1 -1;
#X obj 974 741 dac~;
#X obj 872 531 *~ 0.1;
#X obj 976 477 *~ 1;
#X obj 975 696 *~ 1;
#X obj 963 589 clip~ -0.9 0.9;
#X msg 1032 290 1 50;
#X obj 1123 257 delay 50;
#X obj 869 493 hip~ 6000;
#X obj 971 509 bp~ 100 5;
#X obj 968 548 *~ 25;
#X msg 1114 330 0.5 250;
#X obj 1193 334 delay 250;
#X msg 1204 416 0 200;
#X obj 829 633 r glovolume;
#X floatatom 825 673 5 0 0 0 - - -;
#X connect 6 0 28 0;
#X connect 7 0 15 0;
#X connect 7 1 20 0;
#X connect 7 2 21 0;
#X connect 7 3 22 0;
#X connect 7 4 23 0;
#X connect 7 5 24 0;
#X connect 7 6 25 0;
#X connect 7 7 26 0;
#X connect 7 8 15 0;
#X connect 8 0 60 0;
#X connect 8 0 68 0;
#X connect 9 0 74 0;
#X connect 10 0 8 0;
#X connect 11 0 10 0;
#X connect 11 0 69 0;
#X connect 12 0 9 1;
#X connect 13 0 11 1;
#X connect 14 0 67 0;
#X connect 15 0 11 0;
#X connect 16 0 7 0;
#X connect 18 0 19 0;
#X connect 20 0 11 0;
#X connect 21 0 11 0;
#X connect 22 0 11 0;
#X connect 23 0 11 0;
#X connect 24 0 11 0;
#X connect 25 0 11 0;
#X connect 26 0 11 0;
#X connect 27 0 16 0;
#X connect 28 0 31 0;
#X connect 29 0 28 0;
#X connect 32 0 78 0;
#X connect 33 0 47 0;
#X connect 34 0 33 0;
#X connect 35 0 38 0;
#X connect 35 0 64 0;
#X connect 36 0 35 0;
#X connect 37 0 35 1;
#X connect 38 0 39 0;
#X connect 38 0 44 0;
#X connect 39 0 38 1;
#X connect 40 0 45 0;
#X connect 40 1 61 0;
#X connect 40 2 62 0;
#X connect 40 3 63 0;
#X connect 41 0 32 1;
#X connect 42 0 34 1;
#X connect 43 0 65 0;
#X connect 44 0 40 0;
#X connect 45 0 34 0;
#X connect 46 0 50 0;
#X connect 47 0 46 0;
#X connect 47 0 49 0;
#X connect 48 0 50 1;
#X connect 49 0 48 0;
#X connect 50 0 51 0;
#X connect 51 0 32 0;
#X connect 52 0 46 1;
#X connect 53 0 48 1;
#X connect 54 0 52 0;
#X connect 54 0 53 0;
#X connect 55 0 54 0;
#X connect 56 0 37 0;
#X connect 57 0 58 0;
#X connect 58 0 37 0;
#X connect 59 0 36 0;
#X connect 59 0 58 0;
#X connect 60 0 9 0;
#X connect 61 0 34 0;
#X connect 62 0 34 0;
#X connect 63 0 34 0;
#X connect 64 0 41 0;
#X connect 65 0 42 0;
#X connect 66 0 9 0;
#X connect 67 0 13 0;
#X connect 68 0 66 0;
#X connect 69 0 12 0;
#X connect 72 0 74 1;
#X connect 73 0 72 0;
#X connect 74 0 75 0;
#X connect 74 0 75 1;
#X connect 76 0 78 1;
#X connect 77 0 76 0;
#X connect 78 0 79 0;
#X connect 78 0 79 1;
#X connect 80 0 82 1;
#X connect 81 0 80 0;
#X connect 82 0 83 0;
#X connect 82 0 83 1;
#X connect 84 0 85 0;
#X connect 85 0 86 0;
#X connect 86 0 82 0;
#X connect 87 0 88 0;
#X connect 88 0 114 0;
#X connect 89 0 90 0;
#X connect 90 0 91 0;
#X connect 90 0 94 0;
#X connect 91 0 90 1;
#X connect 92 0 98 0;
#X connect 93 0 98 0;
#X connect 94 0 95 0;
#X connect 94 0 100 0;
#X connect 95 0 92 0;
#X connect 95 1 93 0;
#X connect 95 2 96 0;
#X connect 95 3 97 0;
#X connect 96 0 98 0;
#X connect 97 0 98 0;
#X connect 98 0 85 1;
#X connect 99 0 104 0;
#X connect 99 0 103 0;
#X connect 99 0 102 0;
#X connect 99 0 101 0;
#X connect 101 0 92 0;
#X connect 102 0 93 0;
#X connect 103 0 96 0;
#X connect 104 0 97 0;
#X connect 105 0 116 0;
#X connect 106 0 118 0;
#X connect 107 0 89 1;
#X connect 108 0 89 0;
#X connect 108 0 111 0;
#X connect 109 0 86 1;
#X connect 110 0 85 1;
#X connect 111 0 110 0;
#X connect 112 0 113 0;
#X connect 113 0 117 0;
#X connect 114 0 109 0;
#X connect 115 0 108 0;
#X connect 116 0 106 0;
#X connect 117 0 105 0;
#X connect 118 0 107 0;
#X connect 119 0 133 0;
#X connect 119 0 134 0;
#X connect 120 0 119 0;
#X connect 122 0 130 0;
#X connect 122 0 135 0;
#X connect 123 0 131 0;
#X connect 124 0 125 0;
#X connect 125 0 123 1;
#X connect 126 0 138 0;
#X connect 126 0 139 0;
#X connect 127 0 140 0;
#X connect 129 0 132 0;
#X connect 130 0 136 0;
#X connect 131 0 128 0;
#X connect 131 0 128 1;
#X connect 132 0 123 0;
#X connect 133 0 124 0;
#X connect 134 0 126 0;
#X connect 135 0 129 0;
#X connect 136 0 137 0;
#X connect 137 0 132 0;
#X connect 138 0 124 0;
#X connect 139 0 127 0;
#X connect 140 0 124 0;
#X connect 141 0 142 0;
#X connect 142 0 131 0;
